<svg xmlns="http://www.w3.org/2000/svg" viewBox="0 0 330 373" fill="none"><g clip-path="url(#a)"><path fill="#41382E" d="M196.469 136.841c-14.611 0-22.536-1.786-25.304-5.597-2.442-3.363-.805-7.8 1.091-12.937 1.363-3.693 2.907-7.878 2.907-12.02 0-20.147 10.215-30.362 30.362-30.362 10.024 0 20.786 5.325 28.79 14.244 7.277 8.109 10.901 17.813 9.945 26.625-.784 7.227-4.148 11.979-10.586 14.957l-.376.175-.107-.401a17.13 17.13 0 0 0-2.774-5.752 19.686 19.686 0 0 1-2.007 7.799l-.068.138-.149.043c-7.287 2.075-15.935 2.638-22.655 2.895a235.22 235.22 0 0 1-9.069.193Z"/><path fill="#F0C9A4" d="M200.453 164.911a10.942 10.942 0 0 0-7.191-6.946 10.929 10.929 0 0 0-9.834 1.805l-48.06 28.734-15.039-36.695a10.673 10.673 0 0 0-.379-12.549 10.676 10.676 0 1 0-11.418 16.79c.927 10.581 6.079 57.877 23.999 56.158 15.063-1.446 52.471-26.358 64.089-34.996a10.94 10.94 0 0 0 3.833-12.301Z"/><path fill="#6C68B2" d="M236.669 373.611H194.84l-7.015-34.682-2.275 34.682h-38.857a792.634 792.634 0 0 1 4.251-81.544l.482-1.64.76-2.625.482-1.647 8.041-27.612.635-2.191h48.418a70.731 70.731 0 0 1 7.685 8.487 99.976 99.976 0 0 1 2.457 3.266c.586.831 1.193 1.703 1.801 2.618a87.954 87.954 0 0 1 11.935 26.244v.007a75.377 75.377 0 0 1 1.131 4.906v.007c.293 1.487.551 2.995.754 4.537.153 1.124.286 2.262.383 3.413a78.253 78.253 0 0 1-.607 19.139l1.368 44.635Z"/><path fill="#E6E6E6" d="M14.89 56.48c2.716-1.051 4.326-3.435 3.594-5.325-.731-1.89-3.527-2.57-6.243-1.518-2.717 1.052-4.326 3.436-3.594 5.326.731 1.89 3.527 2.57 6.243 1.517Z"/><path fill="#3F3D56" d="M49.093 52.093c2.717-1.052 4.326-3.436 3.594-5.326-.731-1.89-3.526-2.569-6.243-1.518-2.716 1.052-4.326 3.436-3.594 5.326.731 1.89 3.527 2.57 6.243 1.518Z"/><path fill="#F4717B" d="M11.923 85.662c2.717-1.052 4.326-3.436 3.594-5.326-.731-1.89-3.526-2.57-6.243-1.518-2.716 1.052-4.326 3.436-3.594 5.326.732 1.89 3.527 2.57 6.243 1.518Z"/><path fill="#E6E6E6" d="M2.028 98.534c1.247-.295 1.913-1.987 1.49-3.778-.425-1.792-1.779-3.005-3.025-2.71-1.246.295-1.913 1.986-1.489 3.778.424 1.791 1.778 3.005 3.024 2.71Z"/><path fill="#3F3D56" d="M1.825 120.326c1.247-.295 1.913-1.986 1.489-3.778-.424-1.791-1.778-3.004-3.024-2.709-1.247.295-1.913 1.986-1.489 3.778.424 1.791 1.778 3.004 3.024 2.709Z"/><path fill="#E6E6E6" d="M31.843 75.189c1.246-.295 1.913-1.987 1.489-3.778-.424-1.792-1.778-3.005-3.025-2.71-1.246.295-1.912 1.987-1.488 3.778.424 1.791 1.778 3.005 3.024 2.71Z"/><path fill="#F4717B" d="M13.831 70.814c1.246-.295 1.913-1.986 1.489-3.778-.424-1.791-1.778-3.004-3.024-2.71-1.247.296-1.913 1.987-1.49 3.779.425 1.791 1.779 3.004 3.025 2.71Z"/><path fill="#3F3D56" d="M32.923 50.747c1.246-.295 1.913-1.987 1.489-3.778-.424-1.792-1.778-3.005-3.025-2.71-1.246.295-1.912 1.987-1.488 3.778.424 1.792 1.778 3.005 3.024 2.71Z"/><path fill="#E6E6E6" d="M41.802 201.577c1.313-1.543.58-4.324-1.639-6.212-2.218-1.888-5.08-2.168-6.394-.625-1.314 1.543-.58 4.325 1.638 6.213s5.081 2.168 6.395.624Z"/><path fill="#3F3D56" d="M21.66 173.59c1.314-1.544.581-4.325-1.637-6.213s-5.081-2.168-6.395-.625c-1.313 1.543-.58 4.325 1.638 6.213 2.219 1.888 5.082 2.168 6.395.625Z"/><path fill="#F4717B" d="M68.876 190.292c1.313-1.544.58-4.325-1.638-6.213-2.219-1.888-5.081-2.168-6.395-.625-1.313 1.543-.58 4.325 1.638 6.213s5.081 2.168 6.395.625Z"/><path fill="#E6E6E6" d="M82.325 190.6c1.374-1.225 1.796-2.994.943-3.949-.853-.956-2.658-.736-4.031.489-1.374 1.226-1.796 2.995-.943 3.95.853.956 2.658.736 4.031-.49Z"/><path fill="#3F3D56" d="M101.587 180.403c1.373-1.226 1.795-2.994.943-3.95-.853-.955-2.658-.736-4.031.49-1.374 1.226-1.796 2.994-.943 3.95.853.955 2.657.736 4.031-.49Z"/><path fill="#E6E6E6" d="M47.6 175.497c1.374-1.226 1.796-2.994.943-3.949-.852-.956-2.657-.737-4.03.489-1.374 1.226-1.796 2.994-.944 3.95.853.955 2.658.736 4.031-.49Z"/><path fill="#F4717B" d="M52.333 193.421c1.373-1.226 1.796-2.994.943-3.95-.853-.955-2.658-.736-4.031.49-1.374 1.226-1.796 2.994-.943 3.95.853.955 2.657.736 4.03-.49Z"/><path fill="#3F3D56" d="M25.593 186.186c1.373-1.226 1.795-2.994.942-3.95-.852-.955-2.657-.736-4.03.49-1.374 1.226-1.796 2.994-.943 3.949.852.956 2.657.737 4.03-.489Z"/><path fill="#E6E6E6" d="M177.131 22.072c1.819-.894 2.251-3.738.965-6.352-1.285-2.614-3.802-4.008-5.62-3.114-1.818.894-2.25 3.738-.965 6.352 1.286 2.614 3.802 4.008 5.62 3.114Z"/><path fill="#3F3D56" d="M184.497 55.76c1.818-.895 2.25-3.739.964-6.353-1.285-2.614-3.801-4.008-5.62-3.114-1.818.895-2.25 3.739-.965 6.352 1.286 2.614 3.802 4.008 5.621 3.114Z"/><path fill="#F4717B" d="M147.801 21.674c1.819-.894 2.251-3.738.965-6.352-1.285-2.614-3.802-4.008-5.62-3.114-1.818.894-2.25 3.738-.965 6.352 1.286 2.614 3.802 4.008 5.62 3.114Z"/><path fill="#E6E6E6" d="M132.385 10.983c1.748-.579 2.838-2.034 2.435-3.25-.404-1.215-2.147-1.731-3.894-1.152-1.748.58-2.838 2.035-2.435 3.25.404 1.216 2.147 1.732 3.894 1.152Z"/><path fill="#3F3D56" d="M110.661 12.69c1.747-.58 2.837-2.034 2.434-3.25-.403-1.216-2.146-1.731-3.894-1.152-1.747.58-2.837 2.034-2.434 3.25.403 1.216 2.146 1.731 3.894 1.152Z"/><path fill="#E6E6E6" d="M158.254 38.639c1.748-.58 2.838-2.035 2.435-3.25-.403-1.216-2.147-1.732-3.894-1.152-1.748.58-2.837 2.034-2.434 3.25.403 1.216 2.146 1.731 3.893 1.152Z"/><path fill="#F4717B" d="M161.034 20.311c1.747-.58 2.837-2.035 2.434-3.25-.403-1.216-2.146-1.732-3.894-1.152-1.747.58-2.837 2.034-2.434 3.25.403 1.216 2.146 1.731 3.894 1.152Z"/><path fill="#3F3D56" d="M182.698 37.573c1.747-.58 2.837-2.035 2.434-3.25-.403-1.216-2.146-1.732-3.894-1.152-1.747.579-2.837 2.034-2.434 3.25.403 1.215 2.146 1.731 3.894 1.152Z"/><path fill="#02006F" d="m189.403 142.449 23.044-1.187 10.704 16.913s20.138 3.367 18.743 27.098c-1.396 23.731-24.503 44.556-24.503 44.556l.987 12.358-1.715 4.901.22 2.753 2.34 2.915.241 3.014-2.073 4.769 2.819 4.567-59.282-5.743-2.167-7.897 3.162-4.241-1.766-5.531 2.655-5.32 1.385-16.899s-15.149-22.759 2.241-39.901l6.98-11.865 7.81-9.528 8.175-15.732Z"/><path fill="#F0C9A4" d="M200.861 137.674c13.486 0 24.419-10.932 24.419-24.418 0-13.486-10.933-24.418-24.419-24.418-13.485 0-24.418 10.932-24.418 24.418 0 13.486 10.933 24.418 24.418 24.418Z"/><path fill="#41382E" d="M197.592 111.776c-2.104 0-4.207-.059-6.309-.178l-.375-.021.049-.373c.31-2.331.135-4.7-.512-6.961a19.678 19.678 0 0 1-4.797 6.776l-.117.106-.156-.017a120.46 120.46 0 0 1-16.927-3.087l-.213-.054-.042-.216a31.92 31.92 0 0 1-.642-6.196c0-6.503 2.357-11.975 6.638-15.41 4.659-3.74 11.338-4.89 18.813-3.24h23.903a9.923 9.923 0 0 1 9.911 9.911v15.137l-.261.068a114.39 114.39 0 0 1-28.963 3.755Z"/><path fill="#CCC" d="M30.975 84.615a4.302 4.302 0 0 0-2.566 5.509l25.785 70.753a4.302 4.302 0 0 0 5.51 2.566L159.78 126.97a4.3 4.3 0 0 0 2.566-5.509l-25.786-70.753a4.302 4.302 0 0 0-5.508-2.566L30.975 84.615Z"/><path fill="#fff" d="m122.534 136.644-61.258 22.325a4.627 4.627 0 0 1-5.929-2.762L31.96 92.035a4.63 4.63 0 0 1 2.761-5.93l94.423-34.411a4.63 4.63 0 0 1 5.929 2.762l11.301 31.007a39.97 39.97 0 0 1-23.84 51.181Z"/><path fill="#F0C9A4" d="m270.027 121.782-25.836 61.827a10.814 10.814 0 0 1-17.642 3.421 10.804 10.804 0 0 1-3.136-7.946 10.818 10.818 0 0 1 1.007-4.243l28.807-63.4 15.88-39.262a9.438 9.438 0 1 1 12.067 1.057l-11.147 48.546Z"/><path fill="#02006F" d="M53.783 95.262c.267.03.459.156.577.38.128.22.151.455.07.706a.656.656 0 0 1-.348.426.936.936 0 0 1-.562.086 5.27 5.27 0 0 0-1.072-.022c-.361.03-.726.113-1.094.25a4.376 4.376 0 0 0-1.472.876 3.54 3.54 0 0 0-.895 1.257 3.857 3.857 0 0 0-.322 1.532c.004.545.115 1.109.33 1.692.24.644.549 1.181.929 1.61.376.419.797.74 1.264.962.473.209.971.315 1.496.318a4.9 4.9 0 0 0 2.577-.815c.307-.207.578-.447.814-.721a.91.91 0 0 1 .503-.291.655.655 0 0 1 .541.096c.254.15.397.347.429.591.039.23-.029.441-.202.633a5.204 5.204 0 0 1-.707.681c-.269.216-.55.413-.845.592a5.456 5.456 0 0 1-.932.451 6.278 6.278 0 0 1-2.222.405 5.67 5.67 0 0 1-2.147-.426 5.379 5.379 0 0 1-1.855-1.284c-.54-.579-.973-1.308-1.299-2.188a6.194 6.194 0 0 1-.409-2.326 5.428 5.428 0 0 1 .508-2.16 5.617 5.617 0 0 1 1.328-1.783 5.994 5.994 0 0 1 2.025-1.222c.49-.181.99-.296 1.495-.344a5.791 5.791 0 0 1 1.497.038Zm11.948 2.498c.303.818.394 1.61.27 2.377a4.217 4.217 0 0 1-.91 2.013c-.482.585-1.106 1.02-1.873 1.304-.767.284-1.523.361-2.27.231a4.336 4.336 0 0 1-2.018-.927c-.593-.501-1.041-1.161-1.344-1.979-.307-.828-.398-1.62-.27-2.377a4.3 4.3 0 0 1 .92-2.034c.477-.596 1.1-1.036 1.866-1.32.767-.284 1.526-.356 2.276-.215.746.13 1.416.446 2.009.948.589.49 1.037 1.15 1.344 1.979Zm-1.534.568c-.208-.562-.501-1.006-.878-1.332a2.674 2.674 0 0 0-1.284-.64c-.47-.106-.94-.071-1.41.103-.47.175-.854.457-1.152.846-.301.38-.486.82-.556 1.323-.073.493-.006 1.02.203 1.582.2.542.491.981.872 1.317.38.336.808.55 1.284.641.476.091.949.049 1.42-.125.47-.174.85-.449 1.142-.825.301-.379.486-.82.556-1.323.07-.502.004-1.025-.197-1.567Zm11.001-4.078c.304.818.394 1.61.271 2.377a4.212 4.212 0 0 1-.911 2.013c-.481.586-1.105 1.02-1.872 1.305-.767.284-1.524.361-2.27.231a4.342 4.342 0 0 1-2.019-.927c-.593-.502-1.04-1.161-1.344-1.98-.307-.828-.397-1.62-.27-2.377.133-.77.44-1.448.92-2.033.478-.596 1.1-1.036 1.867-1.32.767-.285 1.525-.356 2.275-.216.747.13 1.416.447 2.01.948.588.491 1.036 1.151 1.343 1.98Zm-1.533.569c-.209-.563-.502-1.007-.878-1.332a2.674 2.674 0 0 0-1.284-.64c-.47-.106-.94-.071-1.41.103s-.855.456-1.152.846c-.302.379-.487.82-.557 1.323-.073.492-.005 1.02.203 1.582.201.542.492.98.872 1.317.38.336.808.55 1.284.64.476.092.95.05 1.42-.124a2.52 2.52 0 0 0 1.142-.825c.301-.38.487-.82.556-1.323.07-.503.004-1.025-.197-1.567Zm5.655 2.492a.833.833 0 0 1-.632-.01.854.854 0 0 1-.425-.488l-3.628-9.786a.797.797 0 0 1 .01-.632.803.803 0 0 1 .467-.435.77.77 0 0 1 .638.025c.196.09.336.248.42.473l3.627 9.787a.853.853 0 0 1-.005.647.797.797 0 0 1-.472.42Zm1.998-9.953a.696.696 0 0 1 .597.058c.204.11.336.248.397.411.076.205.049.43-.08.676l-3.21 6.075-.715-1.742 2.535-5.022a.83.83 0 0 1 .476-.456Zm3.18 8.016a.76.76 0 0 1-.648-.056l-4.268-2.1.768-1.505 4.191 2.128a.885.885 0 0 1 .462.491.714.714 0 0 1-.072.655c-.124.197-.268.326-.432.387Zm3.638-2.22a.853.853 0 0 1-.005.647.797.797 0 0 1-.472.42.832.832 0 0 1-.632-.01.853.853 0 0 1-.425-.489l-2.434-6.565a.797.797 0 0 1 .01-.632.803.803 0 0 1 .467-.435.77.77 0 0 1 .638.026c.196.09.336.247.42.472l2.433 6.566Zm-3.882-8.07c-.296.11-.53.138-.7.085-.175-.063-.31-.223-.405-.478l-.09-.246c-.096-.255-.09-.461.015-.616.105-.156.301-.286.587-.392.307-.114.548-.14.723-.076.17.053.301.202.392.447l.091.246c.099.266.096.476-.01.632-.095.151-.296.284-.603.397Zm10.05 6.847c-.849.315-1.65.414-2.402.298a4.09 4.09 0 0 1-1.998-.918c-.568-.498-1-1.146-1.296-1.944-.334-.9-.439-1.733-.316-2.5.13-.78.423-1.448.88-2.001a3.802 3.802 0 0 1 1.663-1.21 3.636 3.636 0 0 1 1.54-.222 3.944 3.944 0 0 1 1.504.385 4.02 4.02 0 0 1 1.304.93c.38.394.678.87.897 1.43a.735.735 0 0 1-.058.597.847.847 0 0 1-.463.398l-5.967 2.212-.851-1.167 5.767-2.138-.189.384-.142-.384a1.7 1.7 0 0 0-.7-.805 2.22 2.22 0 0 0-1.03-.333 2.411 2.411 0 0 0-1.083.14 2.8 2.8 0 0 0-.833.483c-.242.194-.435.44-.58.739-.136.294-.204.645-.204 1.052.006.393.106.85.3 1.372.208.563.508 1.01.898 1.342.39.332.829.542 1.315.63.482.076.964.026 1.444-.152.379-.14.677-.292.896-.455.215-.172.384-.345.506-.519.122-.173.225-.333.31-.48a.947.947 0 0 1 .409-.31.64.64 0 0 1 .534.03.646.646 0 0 1 .349.376c.083.225.047.471-.11.739-.178.368-.474.745-.889 1.132a4.095 4.095 0 0 1-1.405.87Zm4.171-3.151a.855.855 0 0 1-.304-.445c-.062-.198-.015-.402.14-.61a.688.688 0 0 1 .405-.273c.167-.05.35-.03.546.06.403.21.813.344 1.229.399.426.051.89-.016 1.391-.202.201-.086.399-.194.595-.325.192-.141.338-.311.438-.511.097-.21.092-.459-.014-.745-.095-.256-.252-.43-.473-.523a1.896 1.896 0 0 0-.781-.13 9.052 9.052 0 0 0-.961.043c-.361.03-.732.05-1.11.063a4.254 4.254 0 0 1-1.05-.1 2.448 2.448 0 0 1-.92-.461c-.27-.226-.483-.548-.639-.968-.178-.48-.198-.944-.061-1.39.147-.45.4-.852.757-1.205.367-.357.807-.63 1.318-.82.297-.11.624-.185.981-.225.354-.05.715-.05 1.082 0 .368.05.713.167 1.037.35a.898.898 0 0 1 .345.412c.088.177.067.37-.064.582a.654.654 0 0 1-.393.303.72.72 0 0 1-.492-.01 2.035 2.035 0 0 0-.963-.288 2.599 2.599 0 0 0-1.122.172 2.38 2.38 0 0 0-.58.319 1.172 1.172 0 0 0-.413.485c-.09.196-.084.432.018.708.095.256.253.43.473.523.23.089.503.133.817.133.314 0 .65-.02 1.008-.06.347-.035.695-.053 1.043-.055.359-.005.695.04 1.009.132.32.08.61.234.869.463.266.216.479.538.638.968.186.5.197.985.033 1.453a2.936 2.936 0 0 1-.809 1.207 3.816 3.816 0 0 1-1.293.794 5.605 5.605 0 0 1-1.863.341c-.652-.002-1.274-.19-1.867-.564Zm11.861-1.745 15.34-5.686-5.686-15.34-15.34 5.687 5.686 15.34Zm15.728-12.686a.837.837 0 0 1 .01-.632.804.804 0 0 1 .467-.435c.436-.173.799-.4 1.09-.683.291-.282.482-.615.573-.998.091-.382.051-.804-.12-1.264-.148-.399-.367-.707-.657-.925a1.92 1.92 0 0 0-.977-.423 2.218 2.218 0 0 0-1.14.126 2.34 2.34 0 0 0-.861.546 3.008 3.008 0 0 0-.574.806 1.357 1.357 0 0 1-.389.458c-.165.12-.371.143-.618.072-.258-.067-.437-.204-.537-.412-.1-.207-.097-.435.009-.683.203-.518.514-.982.932-1.392.417-.411.907-.72 1.47-.93a3.848 3.848 0 0 1 1.98-.21c.656.106 1.239.36 1.75.765.51.404.892.948 1.146 1.634.174.47.257.928.248 1.373-.01.446-.105.865-.285 1.257-.18.393-.427.746-.741 1.06-.304.31-.666.573-1.087.787l-.025.027.046-.017.342.92a.804.804 0 0 1-.026.638.775.775 0 0 1-.457.413.798.798 0 0 1-.632-.01.83.83 0 0 1-.419-.472l-.518-1.396Zm2.558 4.687c-.256.095-.482.097-.678.007-.186-.094-.327-.269-.421-.524l-.103-.276c-.098-.266-.106-.49-.022-.672.09-.197.263-.342.519-.437l.153-.057c.266-.098.492-.1.678-.007.182.084.322.259.421.525l.102.276c.095.255.103.48.023.672-.08.192-.253.338-.519.436l-.153.057Z"/><rect width="40.428" height="10.107" x="54.486" y="126.876" fill="#F25E5E" rx="5.053" transform="rotate(-20.34 54.486 126.876)"/><rect width="40.428" height="10.107" x="98.297" y="109.042" fill="#7BE361" rx="5.053" transform="rotate(-20.34 98.297 109.042)"/><path stroke="#F4717B" stroke-linecap="round" stroke-width="7.219" d="M165.032 129.949 27.867 82.302M53.839 164.908l85.223-117.565"/></g><defs><clipPath id="a"><path fill="#fff" d="M0 0h329.196v373H0z"/></clipPath></defs></svg>