<svg xmlns="http://www.w3.org/2000/svg" viewBox="0 0 407 386" fill="none"><g clip-path="url(#a)"><path fill="#DEDCE7" d="M0 247.073c0 59.349 37.617 109.918 90.306 129.159a135.908 135.908 0 0 0 24.711 6.486 138.39 138.39 0 0 0 69.035-6.269c53.023-19.083 90.914-69.823 90.889-129.406 0-75.892-61.549-137.441-137.47-137.441a136.873 136.873 0 0 0-79.987 25.661C22.679 160.199 0 200.987 0 247.073Z"/><path fill="#2F2E41" d="M90.306 376.232a135.894 135.894 0 0 0 24.712 6.486 138.392 138.392 0 0 0 69.035-6.269l-6.349-25.474-.383-1.529-12.956.05-65.086.234-.833 2.462-8.14 24.04Z"/><path fill="#E6E6E6" d="M276.933 0h119.413v135.119H276.933V-.001Z"/><path fill="#fff" d="M279.271 2.859h114.946V132.26H279.271V2.859Z"/><path fill="#E6E6E6" d="M336.641 127.66a6.443 6.443 0 0 1-6.443-6.443 6.443 6.443 0 1 1 6.443 6.443ZM337.725 48.664h37.007v3.786h-37.007v-3.786Z"/><path fill="#02006F" d="M318.878 60.009h55.854v3.786h-55.854v-3.786Z"/><path fill="#E6E6E6" d="M324.361 71.424h50.371v3.786h-50.371v-3.786Z"/><path fill="#02006F" d="M296.948 82.54h77.784v3.785h-77.784V82.54Z"/><path fill="#E6E6E6" d="M310.533 93.124h63.393v3.786h-63.393v-3.786Z"/><path fill="#9F616A" d="M267.965 310.992c-.454.466-.87.968-1.246 1.499l-58.366-1.428-6.809-12.442-20.12 7.822 9.914 23.198a9.42 9.42 0 0 0 9.79 5.649l65.944-7.966a12.357 12.357 0 1 0 .895-16.335l-.002.003Z"/><path fill="#6C63FF" d="m189.406 239.945-27.314-8.952-8.023-11.002-39.04 2.31-5.731 12.839-20.818 9.836 3.2 59.414 5.473 55.604c28.143-14.573 80.665-3.463 81.125-3.282l11.128-116.767Z"/><path fill="#6C63FF" d="m183.568 320.365 27.784-11.116-.119-.495c-.119-.5-11.944-49.913-13.514-57.854-1.635-8.272-7.611-10.56-7.865-10.653l-.185-.068-10.995 3.347-4.829 37.942 9.723 38.897Z"/><path fill="#9F616A" d="M123.577 357.549a12.437 12.437 0 0 0-1.948.108l-38.636-43.771 4.494-13.449L68.07 291 57.8 314.042a9.419 9.419 0 0 0 2.514 11.02L110.99 368a12.358 12.358 0 1 0 12.587-10.451Z"/><path fill="#6C63FF" d="m86.076 318.147 16.117-37.911-6.286-26.408-6.773-8.557a3.904 3.904 0 0 0-3.134.03c-2.5 1.005-4.624 4.086-6.323 9.158l-15.104 43.023 21.503 20.665Z"/><path fill="#2F2E41" d="M169.697 205.942v-28.581a38.288 38.288 0 0 0-23.525-35.462 38.313 38.313 0 0 0-29.313-.097 38.288 38.288 0 0 0-20.796 20.658 38.306 38.306 0 0 0-2.964 14.901v28.581a5.153 5.153 0 0 0 5.145 5.145h66.308a5.153 5.153 0 0 0 5.145-5.145Z"/><path fill="#9F616A" d="M139.268 210.421c-15.508 0-28.079-12.572-28.079-28.08 0-15.507 12.571-28.079 28.079-28.079 15.508 0 28.08 12.572 28.08 28.079 0 15.508-12.572 28.08-28.08 28.08Z"/><path fill="#2F2E41" d="M178.758 179.648a30.33 30.33 0 0 0-30.297-30.297h-5.716a30.33 30.33 0 0 0-30.296 30.297v.571h12.08l4.121-11.539.824 11.539h6.243l2.078-5.821.417 5.821h40.546v-.571Z"/><path fill="#2F2E41" d="M142.032 214.301a5.065 5.065 0 0 0 .403-5.381c-6.057-11.522-14.539-32.812-3.281-45.941l.807-.943h-32.683v49.069l29.69 5.238a5.116 5.116 0 0 0 5.062-2.04l.002-.002Z"/><path fill="#02006F" d="M336.743 10.524a13.7 13.7 0 0 1 13.439 16.373 13.698 13.698 0 0 1-10.765 10.766 13.701 13.701 0 0 1-16.375-13.437 13.694 13.694 0 0 1 4.013-9.69 13.713 13.713 0 0 1 9.689-4.012h-.001Zm0 4.11a4.106 4.106 0 0 0-3.797 2.537 4.107 4.107 0 0 0 2.995 5.604 4.112 4.112 0 0 0 4.912-4.031 4.11 4.11 0 0 0-4.11-4.11Zm0 19.788a9.983 9.983 0 0 0 8.221-4.388c-.066-2.74-5.481-4.248-8.221-4.248s-8.155 1.508-8.221 4.248a10 10 0 0 0 8.221 4.388ZM333.82 122.703c-14.484 2.453-29.206 16.918-28.908 34.055.134 7.714 3.076 15.064 8.463 19.312 6.258 4.932 14.715 3.844 22.426 2.282 4.185-.848 8.396-1.938 12.593-2.325 4.345-.4 9.004-.018 12.217 3.07 2.894 2.782 4.006 7.115 4.32 11.471a72.362 72.362 0 0 1-.659 14.489c-1.336 10.042-4.367 19.938-8.926 29.143a97.053 97.053 0 0 1-7.857 13.06c-3.119 4.387-6.478 8.565-9.578 12.971-5.172 7.357-9.979 16.214-9.869 25.346.108 8.872 5.598 15.182 11.889 19.108 11.618 7.251 27.034 6.958 40.277.156 6.353-3.263 12.542-8.146 16.935-14.473 3.834-5.521 7.095-13.324 5.346-19.781-1.952-7.205-9.329-8.879-15.66-6.544-8.079 2.981-13.424 11.616-17.104 19.791-4.185 9.299-7.031 19.164-11.788 28.211a54.207 54.207 0 0 1-8.415 12.121c-2.979 3.124-6.374 5.683-10.022 7.551-7.225 3.742-15.216 4.925-22.616 4.041-8.9-1.061-16.98-5.137-24.133-10.359a103.883 103.883 0 0 1-10.498-8.925c-1.406-1.346.657-4.171 2.073-2.815 12.538 12 28.472 22.536 46.974 17.718 7.799-1.933 15.01-7.067 20.164-14.356 5.969-8.489 9.21-18.695 12.996-28.306 3.6-9.138 8.157-18.913 15.915-24.738 6.364-4.779 15.19-6.241 20.898-1.516 5.504 4.557 5.616 13.1 3.026 20.483-2.717 7.747-8.032 14.235-14.083 19.121-12.586 10.164-28.539 13.661-42.256 9.931-7.147-1.943-13.988-6.033-18.547-12.281-2.491-3.33-4.008-7.499-4.378-12.033-.323-4.501.567-9.157 2.071-13.571 3.417-10.028 10.238-18.142 16.347-26.422a99.427 99.427 0 0 0 8.509-13.4 92.516 92.516 0 0 0 5.911-14.288 88.31 88.31 0 0 0 3.338-14.872c.74-4.875.943-9.761.602-14.544-.379-4.253-1.765-8.386-5.33-10.119-3.865-1.88-8.567-1.111-12.855-.3-8.472 1.603-17.247 4.309-25.433 2.157-7.161-1.88-12.413-7.937-14.83-15.535-1.243-3.822-1.732-7.99-1.437-12.243.294-4.254 1.366-8.501 3.148-12.476 3.73-8.129 10.127-14.698 17.356-18.748 3.586-2.009 7.374-3.368 11.208-4.022 1.978-.335 2.158 3.06.178 3.396l.002.008Z"/></g><defs><clipPath id="a"><path fill="#fff" d="M407 0H0v385.437h407z"/></clipPath></defs></svg>