<svg xmlns="http://www.w3.org/2000/svg" viewBox="0 0 350 367" fill="none"><g clip-path="url(#a)"><path fill="#D0A612" d="M286.453 19.918c-2.644-8.435-8.656-16.172-16.972-19.024-8.315-2.851-20.492 1.492-26.743 7.73-11.435 11.409-14.226 50.603-6.369 62.988 1.562-.082 6.954-.144 8.536-.203l2.237-7.465v7.391c12.345-.382 25.198-.142 38.057.105 1.152-8.77 3.898-43.087 1.254-51.522Z"/><path fill="#EDBE9D" d="M164.245 150.434a7.668 7.668 0 0 0 6.586-6.632 7.677 7.677 0 0 0-.302-3.312l21.789-16.363-13.324-4.782-18.649 16.272a7.723 7.723 0 0 0-1.439 13.601 7.703 7.703 0 0 0 5.339 1.216Z"/><path fill="#D7D7D7" d="m250.803 64.665-2.085-7.383s-5.199-1.697-14.07 4.744c-8.871 6.44-63.631 63.934-63.631 63.934l16.303 2.282 49.827-35.634 13.656-27.943Z"/><path fill="#fff" d="M7.25 220.657a8.847 8.847 0 0 1 2.407-5.581 8.828 8.828 0 0 1 5.437-2.708l127.675-14.422a8.813 8.813 0 0 1 3.64.347l29.289 9.18 16.804 5.272 31.013 9.718a8.866 8.866 0 0 1 4.617 3.396 8.88 8.88 0 0 1 1.578 5.513l-5.235 124.571a8.92 8.92 0 0 1-2.262 5.46 8.9 8.9 0 0 1-5.177 2.842l-130.362.285a8.637 8.637 0 0 1-1.852.098 8.839 8.839 0 0 1-2.64-.54L5.79 363.56a8.822 8.822 0 0 1-4.338-3.46 8.837 8.837 0 0 1-1.417-5.368L7.25 220.657Z"/><path fill="#3F3D56" d="m217.037 364.252-130.36.282a8.348 8.348 0 0 1-1.856.087 8.957 8.957 0 0 1-2.645-.527l-76.381-.525a8.854 8.854 0 0 1-5.76-8.835l7.217-134.077a8.921 8.921 0 0 1 1.463-4.4c.12-.174.239-.347.37-.507a8.672 8.672 0 0 1 3.436-2.69 8.836 8.836 0 0 1 2.573-.691l.151-.02 127.518-14.405c.52-.052 1.042-.067 1.564-.046a8.827 8.827 0 0 1 2.086.401l29.286 9.17 16.801 5.281 31.018 9.717a8.774 8.774 0 0 1 3.401 1.987c.078.06.149.127.215.199.047.048.091.099.132.153a8.876 8.876 0 0 1 2.442 6.557l-5.226 124.58a8.928 8.928 0 0 1-2.264 5.464 8.906 8.906 0 0 1-5.181 2.845Zm10.464-132.992a6.58 6.58 0 0 0-.852-3.567 5.804 5.804 0 0 0-.649-.973 6.589 6.589 0 0 0-2.537-1.913 5.154 5.154 0 0 0-.598-.218l-52.227-16.364-24.89-7.818c-.168-.056-.327-.087-.484-.13a6.114 6.114 0 0 0-1.166-.158 5.151 5.151 0 0 0-1.075.026l-127.67 14.426c-.101.013-.19.028-.291.041a6.464 6.464 0 0 0-3.18 1.421 6.52 6.52 0 0 0-2.424 4.74l-7.207 134.09a6.637 6.637 0 0 0 4.306 6.621l76.393.526a6.69 6.69 0 0 0 3.38.325l130.359-.27a6.697 6.697 0 0 0 5.573-6.226l5.239-124.579Z"/><path fill="#fff" d="m15.6 160.254 75.795 41.313 31.14-57.257-75.795-41.313-31.14 57.257Z"/><path fill="#E6E6E6" d="m15.6 160.254 75.795 41.313 31.14-57.257-75.795-41.313-31.14 57.257Zm75.16 39.157-73.007-39.792 29.622-54.466 73.007 39.793-29.622 54.465Z"/><path fill="#02006F" d="m48.258 124.041 55.801 30.414-2.026 3.724-55.8-30.414 2.025-3.724ZM42.182 135.213l55.8 30.414-2.025 3.724-55.8-30.414 2.025-3.724ZM36.106 146.385l55.8 30.414-2.025 3.724-55.8-30.414 2.025-3.724Z"/><path fill="#fff" d="M188.32 109.798c.783-.879 1.05-.968 1.328-.776l43.133 29.792c.275.19.291.47-.243 1.503a305.326 305.326 0 0 1-5.019 7.5l-55.495 80.521c-5.202 7.548-9.722 13.49-10.074 13.247l-43.132-29.792c-.352-.243 3.593-6.582 8.794-14.13l55.496-80.521a306.458 306.458 0 0 1 5.212-7.344Z"/><path fill="#E4E4E4" d="M182.574 117.335a188.237 188.237 0 0 1 2.75-3.765 93.977 93.977 0 0 1 2.453-3.143c.206-.246.383-.457.543-.629.783-.879 1.05-.968 1.328-.776l43.133 29.792c.275.19.291.47-.243 1.503-.109.211-.244.46-.405.747a93.783 93.783 0 0 1-2.064 3.411c-1.489 2.359-3.447 5.305-5.512 8.302l-52.7 76.464c-2.393 3.472-4.713 6.694-6.532 9.075-3.029 3.964-3.251 3.81-3.588 3.578l-43.132-29.792c-.337-.232-.559-.386 2.068-4.628 1.578-2.547 3.762-5.862 6.155-9.335l52.7-76.464c1.034-1.5 2.065-2.969 3.046-4.34Zm41.365 35.015c2.059-2.987 4.013-5.928 5.493-8.273a85.77 85.77 0 0 0 2.045-3.384c.267-.444.501-.906.698-1.385l-42.774-29.544c-.376.355-.726.738-1.044 1.145-.31.37-.669.816-1.077 1.338-.406.523-.859 1.115-1.358 1.778-1.665 2.217-3.716 5.087-5.776 8.077l-52.7 76.464c-5.001 7.257-7.883 12.04-8.239 13.039l42.78 29.549c.808-.688 4.251-5.083 9.253-12.34l52.699-76.464Z"/><path fill="#02006F" d="m197.543 134.564 8.166 5.641a1.878 1.878 0 0 1 .479 2.612l-4.88 7.081c-.283.409-.717.69-1.206.78a1.883 1.883 0 0 1-1.404-.301l-8.166-5.64a1.883 1.883 0 0 1-.479-2.613l4.88-7.08a1.878 1.878 0 0 1 2.61-.48Z"/><path fill="#E4E4E4" d="m177.196 142.355 28.461 19.658a.844.844 0 0 1 .349.881.853.853 0 0 1-1.011.655.855.855 0 0 1-.305-.132l-28.462-19.659a.844.844 0 0 1-.349-.88.86.86 0 0 1 .37-.537.846.846 0 0 1 .947.014ZM192.582 157.837l10.81 7.466a.862.862 0 0 1 .349.881.855.855 0 0 1-1.012.655.855.855 0 0 1-.305-.132l-10.81-7.467a.85.85 0 0 1-.217-1.186.847.847 0 0 1 1.185-.217Z"/><path fill="#02006F" d="m176.447 165.175 8.166 5.641a1.878 1.878 0 0 1 .479 2.612l-4.88 7.081a1.877 1.877 0 0 1-2.61.479l-8.166-5.64a1.887 1.887 0 0 1-.479-2.613l4.88-7.081a1.88 1.88 0 0 1 2.61-.479Z"/><path fill="#E4E4E4" d="m156.1 172.965 28.462 19.659a.85.85 0 0 1-.33 1.54.848.848 0 0 1-.638-.137l-28.461-19.658a.851.851 0 0 1 .967-1.404ZM171.486 188.447l10.81 7.466a.856.856 0 0 1 .217 1.187.851.851 0 0 1-1.184.217l-10.811-7.466a.862.862 0 0 1-.349-.881.848.848 0 0 1 .37-.537.846.846 0 0 1 .947.014Z"/><path fill="#02006F" d="m155.347 195.785 8.167 5.641a1.882 1.882 0 0 1 .479 2.613l-4.88 7.08a1.88 1.88 0 0 1-2.61.48l-8.167-5.641a1.882 1.882 0 0 1-.478-2.613l4.88-7.08a1.876 1.876 0 0 1 2.609-.48Z"/><path fill="#E4E4E4" d="m135.002 203.576 28.462 19.658a.848.848 0 0 1 .354.548.848.848 0 0 1-.375.87.846.846 0 0 1-.947-.014l-28.461-19.658a.856.856 0 0 1-.218-1.187.856.856 0 0 1 1.185-.217ZM150.386 219.058l10.81 7.466a.844.844 0 0 1 .354.548.848.848 0 0 1-.684.993.863.863 0 0 1-.637-.137l-10.81-7.467a.853.853 0 0 1 .33-1.54.847.847 0 0 1 .637.137Z"/><path fill="#02006F" d="M134.548 235.625a2.65 2.65 0 0 1 2.276-1.294h14.039a2.643 2.643 0 0 1 2.162 1.115l-18.859 2.474v-.936c-.001-.479.132-.95.382-1.359Z"/><path fill="#E4E4E4" d="M78.913 239.043h46.636l-18.429 2.409H85.302l-6.95-2.262c.17-.099.364-.149.56-.147Z"/><path fill="#BD986D" d="m215.807 356.585-130.36.282c-.191.032-.387.014-.568-.053l-76.382-.524a1.1 1.1 0 0 1-.72-1.106l7.205-134.079a1.122 1.122 0 0 1 .978-1.036l.86-.101 126.821-14.31a.787.787 0 0 1 .175-.005c.095.002.19.017.281.044l71.436 22.396 5.67 1.772a1.123 1.123 0 0 1 .771 1.112l-5.237 124.566a1.113 1.113 0 0 1-.93 1.042Z"/><path fill="#41312C" d="m215.535 228.093-71.436-22.396a1.07 1.07 0 0 0-.281-.044.787.787 0 0 0-.175.005l-126.822 14.31 30.544 9.95 11.431 3.717 32.528 10.589c.096.026.194.045.292.059.063-.005.126-.011.201-.015l123.718-16.175Z"/><path fill="#E6E6E6" d="M84.268 361.881c.301.015.597-.084.821-.274.225-.191.362-.457.38-.742L92.9 243.122a1.047 1.047 0 0 0-.287-.783 1.17 1.17 0 0 0-.788-.362h-.01a1.184 1.184 0 0 0-.822.274 1.062 1.062 0 0 0-.379.742l-7.432 117.743c-.018.287.085.568.287.783.202.214.485.345.788.362h.01Z"/><path fill="#fff" d="M204.2 311.438a1.832 1.832 0 0 0-.412-.02l-39.293 2.384a1.856 1.856 0 0 0-1.743 1.969 1.86 1.86 0 0 0 1.967 1.744l39.293-2.384a1.856 1.856 0 0 0 1.743-1.762 1.858 1.858 0 0 0-1.555-1.931ZM203.542 325.257a1.893 1.893 0 0 0-.412-.021l-39.294 2.384a1.856 1.856 0 0 0-1.742 1.969 1.855 1.855 0 0 0 1.966 1.745l39.294-2.384a1.861 1.861 0 0 0 .188-3.693Z"/><path fill="#3F3D56" d="M10.344 217.82c.09.057.185.104.285.138l4.04 1.31 32.695 10.653 11.43 3.711.422.138.894.293 18.242 5.941 6.95 2.262 6.024 1.961c.09.025.187.041.284.057.065-.008.13-.008.204-.016l15.306-2.002 18.429-2.409 8.617-1.123 18.859-2.474 18.095-2.36.447-.057.448-.065 53.984-7.055.456-.065a.81.81 0 0 0 .3-.09 1.115 1.115 0 0 0 .651-1.156 1.09 1.09 0 0 0-.22-.545c-.049-.049-.089-.097-.138-.138-.041-.025-.089-.073-.138-.098a1.073 1.073 0 0 0-.748-.179l-2.699.358-51.448 6.73-.448.057-.447.057-26.655 3.491-9.917 1.294-26.103 3.418-16.672 2.181-6.707-2.181-21.33-6.942-3.626-1.18-.447-.146-.447-.146-11.161-3.63-33.2-10.815-2.974-.969-.578-.187a1.11 1.11 0 0 0-1.382 1.418c.077.227.226.424.423.56Z"/><path fill="#fff" d="M59.851 145.743c.17-4.191.43-6.893.732-6.893H170.65c.301 0 .561 2.702.731 6.893.114 2.921.187 6.567.187 10.514v76.772l-.447.057-18.095 2.36-18.859 2.474-8.617 1.123-18.429 2.409-15.307 2.002c-.073.008-.138.008-.203.016-.097-.016-.195-.032-.284-.057l-6.024-1.961-6.95-2.262-18.242-5.941-.447-.146v-76.846c0-3.947.073-7.593.187-10.514Z"/><path fill="#E4E4E4" d="M59.485 143.928c.057-1.091.114-1.969.18-2.669.045-.732.148-1.458.308-2.173.179-.684.382-.684.61-.684H170.65c.228 0 .431 0 .61.684.157.751.26 1.513.309 2.279.056.683.113 1.529.17 2.563.179 3.296.277 7.674.277 12.329v76.707l-.447.065-.448.057v-76.829c0-4.053-.073-7.487-.178-10.197a47.527 47.527 0 0 0-.545-6.771H60.827a47.354 47.354 0 0 0-.545 6.763c-.097 2.71-.17 6.144-.17 10.205v76.992l-.895-.293v-76.699c0-4.655.098-9.033.268-12.329Z"/><path fill="#02006F" d="M136.826 162.255h14.039a2.649 2.649 0 0 1 2.658 2.652v12.175a2.66 2.66 0 0 1-1.64 2.459 2.656 2.656 0 0 1-1.018.202h-14.039a2.659 2.659 0 0 1-2.658-2.661v-12.175a2.662 2.662 0 0 1 2.658-2.652Z"/><path fill="#E4E4E4" d="M78.913 166.966h48.937a1.204 1.204 0 0 1 0 2.409H78.913a1.202 1.202 0 0 1-1.203-1.204 1.205 1.205 0 0 1 1.203-1.205ZM109.267 172.622h18.583a1.204 1.204 0 0 1 0 2.409h-18.583a1.204 1.204 0 0 1 0-2.409Z"/><path fill="#02006F" d="M136.826 198.289h14.039a2.658 2.658 0 0 1 2.658 2.661v12.174a2.662 2.662 0 0 1-2.658 2.661h-14.039a2.669 2.669 0 0 1-2.658-2.661V200.95a2.669 2.669 0 0 1 2.658-2.661Z"/><path fill="#E4E4E4" d="M78.913 203.001h48.936a1.21 1.21 0 0 1 0 2.417H78.913a1.21 1.21 0 0 1 0-2.417ZM109.267 208.657h18.582a1.21 1.21 0 0 1 0 2.417h-18.582a1.208 1.208 0 0 1 0-2.417Z"/><path fill="#EDBE9D" d="m264.279 345.629-9.939-2.075 3.262-39.367 14.669 3.062-7.992 38.38Z"/><path fill="#fff" d="m268.67 341.421-2.971 24.168-.006.049-.233-.049-6.822-1.426.128-6.928-4.609 5.998-4.414-.918v-.006l-8.913-1.861-.722-.146-2.751-.576-1.907-.397a4.304 4.304 0 0 1-1.26-7.944c.061-.031.123-.068.184-.098h.006c.092-.049.183-.092.281-.135l.165-.073 2.916-1.23.012-.007 7.697-3.243 6.297-2.656 1.4-6.738 1.681.459 10.515 2.851 3.326.906Z"/><path fill="#EDBE9D" d="m332.59 313.488-7.719 6.604-29.115-26.663 11.392-9.746 25.442 29.805Z"/><path fill="#fff" d="m343.791 329.296-5.398-4.342 1.915 7.316-14.526 12.428a4.212 4.212 0 0 1-1.449.817 4.335 4.335 0 0 1-3.172-.196 4.294 4.294 0 0 1-2.379-3.018 4.29 4.29 0 0 1 .053-1.974l4.756-17.945-4.47-5.232 1.391-1.049 8.689-6.583 2.748-2.08 17.317 17.167-5.475 4.691Z"/><path fill="#EDBE9D" d="m293.543 156.297-47.852-1.842-1.8-48.604 40.434 1.299 9.218 49.147ZM257.765 47.875c-10.064 0-18.223-8.168-18.223-18.243s8.159-18.243 18.223-18.243c10.065 0 18.223 8.168 18.223 18.243s-8.158 18.243-18.223 18.243Z"/><path fill="#D0A612" d="M273.492 13.61 252.51 3.093a26.376 26.376 0 0 0-10.7 8.83 26.415 26.415 0 0 0-4.746 13.043l-.523 6.272 8.786-2.24.963-8.018 1.492 7.393 4.054-1.033-.038-12.45 4.057 12.441 14.482-3.33 3.155-10.39Z"/><path fill="#A6A4C8" d="m265.96 254.741-14.19 65.987 20.527 3.874 11.689-55.471-18.026-14.39Z"/><path fill="#B2B0D4" d="M244.771 143.4s-15.943 27.741-.551 69.83l21.766 55.561 37.819 38.314 20.324-12.028-37.788-32.073 16.852-57.189a99.487 99.487 0 0 0 3.515-40.017c-1.214-10.057-10.28-17.904-16.482-27.396-20.709 13.372-44.561 11.221-45.455 4.998Z"/><path fill="#E6E6E6" d="m271.122 53.975-23.561.314-7.668 9.748a19.189 19.189 0 0 0-9.569 5.53 19.223 19.223 0 0 0-4.939 9.896l-.723 4.184a37.516 37.516 0 0 0 4.489 25.171l14.384 13.592-.624 1.135a2.6 2.6 0 0 0 .783 3.379 5.31 5.31 0 0 0-.146 3.494l.304 1.006s-8.064 2.146 41.688-5.247a4.903 4.903 0 0 0 4.141-4.217 3.673 3.673 0 0 0 .678-4.225l-.101-.203.511-.602a3.95 3.95 0 0 0 .199-4.849l.131-28.541a18.262 18.262 0 0 0-2.656-12.292 18.224 18.224 0 0 0-9.972-7.65l-7.349-9.623Z"/><path fill="#EDBE9D" d="M204.103 175.991a7.683 7.683 0 0 1 2.807-5.854 7.651 7.651 0 0 1 6.284-1.604l13.563-23.647 6.368 12.655-13.856 20.516a7.71 7.71 0 0 1-8.5 5.711 7.705 7.705 0 0 1-4.809-2.621 7.724 7.724 0 0 1-1.857-5.156Z"/><path fill="#E6E6E6" d="m278.568 79.515 7.575 1.17s2.317 4.958-2.986 14.559c-5.303 9.6-55.618 71.03-55.618 71.03l-4.253-15.92 29.245-53.86 26.037-16.979Z"/></g><defs><clipPath id="a"><path fill="#fff" d="M350 0H0v366.204h350z"/></clipPath></defs></svg>