<svg xmlns="http://www.w3.org/2000/svg" fill="none" viewBox="0 0 370 314"><g clip-path="url(#a)"><path fill="#E5E5E5" d="M221.038 41.177a26.02 26.02 0 0 1 26.017 26.016 26.017 26.017 0 0 1-26.017 26.017H27.151a26.017 26.017 0 0 1 0-52.033h193.887Z"/><path fill="#fff" d="M221.038 46.442a20.752 20.752 0 0 1 0 41.503H27.151a20.752 20.752 0 0 1 0-41.503h193.887Z"/><path fill="#02006F" d="M178.211 79.602h38.576a.93.93 0 1 0 0-1.859h-38.576a.93.93 0 0 0 0 1.859ZM129.273 79.911h38.577a.924.924 0 0 0 .864-.572.93.93 0 0 0-.864-1.286h-38.577a.928.928 0 0 0-.357 1.79c.113.046.235.07.357.068ZM80.338 80.221h38.577a.93.93 0 0 0 0-1.858H80.338a.93.93 0 1 0 0 1.858ZM31.401 80.53h38.577a.929.929 0 0 0 0-1.858H31.4a.93.93 0 0 0 0 1.859ZM197.584 71.05a7.17 7.17 0 1 1 .001-14.339 7.17 7.17 0 0 1-.001 14.34ZM148.35 71.05a7.17 7.17 0 1 1 0-14.34 7.17 7.17 0 0 1 0 14.34ZM99.121 71.05a7.17 7.17 0 1 1 0-14.34 7.17 7.17 0 0 1 0 14.34ZM49.887 71.05a7.17 7.17 0 1 1 0-14.339 7.17 7.17 0 0 1 0 14.34Z"/><path fill="#1A4E66" d="M157.988 257.944c6.65-32.152 14.962-42.872 14.962-42.872l3.175-2.462 3.819-2.966-.019-.382.906-.308.213-.165.348-.268.057.061.118.122 17.28-5.873 21.923-7.447 10.151-13.195a17.569 17.569 0 0 1 6.219-5.075 17.568 17.568 0 0 1 7.828-1.776l32.42.24a17.557 17.557 0 0 1 11.811 4.684l21.31 19.767 33.205 15.858.056-.056.348.249 5.131 2.453-.212 1.102 3.176 2.292s8.312 9.974 14.961 39.891c1.692 7.613 2.525 23.942 2.825 44.064a7.685 7.685 0 0 1-2.208 5.504 7.676 7.676 0 0 1-5.469 2.291H162.833a7.686 7.686 0 0 1-7.678-7.787c.294-21.896 1.126-39.69 2.833-47.946Z"/><path fill="#966D1D" d="M237.909 158.802c-21.922-8.35-32.924-32.89-24.574-54.811 8.351-21.922 32.891-32.924 54.812-24.574 21.922 8.35 32.924 32.891 24.573 54.812-8.35 21.922-32.89 32.924-54.811 24.573Z"/><path fill="#2F2E41" d="M266.953 161.078c.182-.4.363-.8.543-1.203-.069.002-.138.012-.208.014l-.335 1.189Z"/><path fill="#7F97FF" d="M308.258 96.762c-1.398-2.366-3.183-4.733-5.781-5.628-2.598-.895-6.084.432-6.509 3.147a43.65 43.65 0 0 0-42.076-37.104c-7.237-.18-15.208 1.94-19.189 7.986-1.022 1.552-1.811 3.38-3.393 4.353-1.996 1.228-4.699.648-6.569-.764l-.056-.042a2.008 2.008 0 0 0-3.275 1.784l.523 4.054a15.48 15.48 0 0 1-6.835-2.772 2.008 2.008 0 0 0-3.051.947 2.005 2.005 0 0 0-.05 1.211c2.839 10.439 10.773 19.503 20.944 23.306 7.228 2.703 15.461 2.993 21.848 7.325a19.997 19.997 0 0 1 7.47 23.657 19.983 19.983 0 0 1-4.893 7.369c3.055-1.537 7.01.609 8.335 3.762 1.325 3.152.581 6.821-.855 9.925-2.197 4.746-5.858 8.613-9.575 12.317 17.087 5.9 37.569.139 49.047-13.833 11.526-14.031 13.174-35.365 3.94-51Z"/><path fill="#000" d="m328.195 248.237-11.913 64.817-7.148.623 19.061-65.44ZM196.968 243.349l11.913 69.659 7.148.669-19.061-70.328Z" opacity=".2"/><path fill="#133643" d="M281.51 51.362c-2.473-.096-4.195-2.048-4.094-4.64.103-2.632 2.002-4.47 4.515-4.372 2.513.098 4.195 2.034 4.091 4.708-.103 2.635-1.959 4.404-4.512 4.304Zm1.563-13.756-1.967-.077a1.96 1.96 0 0 1-1.873-1.876l-.007-.197c-.289-4.02 1.312-7.999 4.757-11.82 3.132-3.409 4.967-5.977 5.086-9.02.138-3.518-2.061-5.66-6.033-5.879-1.552-.06-1.961-.261-3.455.278a2.587 2.587 0 0 1-2.817-.7 2.521 2.521 0 0 1-.498-.864 2.557 2.557 0 0 1 1.453-3.172 19.856 19.856 0 0 1 8.031-1.354c8.595.336 10.159 6.457 9.973 11.2-.181 4.637-2.767 7.818-6.4 11.806-3.03 3.308-4.293 6.216-4.224 9.722a1.945 1.945 0 0 1-2.026 1.953Z"/></g><defs><clipPath id="a"><path fill="#fff" d="M370 0H0v313.866h370z"/></clipPath></defs></svg>