<svg xmlns="http://www.w3.org/2000/svg" fill="none" viewBox="0 0 377 393"><path fill="#fff" d="M342.905 243.582H0V0h342.905v243.582Z"/><path fill="#F4717B" d="M27.932 100.043a3.34 3.34 0 0 0-2.363 5.704 3.34 3.34 0 0 0 2.363.979h115.8a3.343 3.343 0 0 0 2.358-5.702 3.343 3.343 0 0 0-2.358-.981h-115.8ZM27.932 120.09a3.338 3.338 0 0 0-3.348 3.334 3.343 3.343 0 0 0 3.334 3.348h115.9a3.341 3.341 0 1 0 0-6.682H27.932ZM27.932 139.85a3.342 3.342 0 0 0-.014 6.682H54a3.343 3.343 0 0 0 3.341-3.341A3.339 3.339 0 0 0 54 139.85H27.931Z"/><path fill="#E5E5E5" d="M342.905 243.582H0V0h342.905v243.582ZM5.637 237.945h331.631V5.637H5.637v232.308Z"/><path fill="#E4E4E4" d="M235.008 190.059a6.012 6.012 0 0 0-4.268 10.25 6.005 6.005 0 0 0 4.243 1.77h57.386a6.019 6.019 0 0 0 4.254-1.758 6 6 0 0 0 1.762-4.252 6.002 6.002 0 0 0-1.762-4.251 6.006 6.006 0 0 0-4.254-1.759h-57.361Z"/><path fill="#F5E5E6" d="M235.008 117.278a6.011 6.011 0 0 0-6.018 5.997 6.007 6.007 0 0 0 5.993 6.023h57.386a6.001 6.001 0 0 0 4.254-1.758 5.994 5.994 0 0 0 1.304-1.951 5.994 5.994 0 0 0 0-4.602 5.994 5.994 0 0 0-3.256-3.253 6.001 6.001 0 0 0-2.302-.456h-57.361Z"/><path fill="#E4E4E4" d="M27.932 192.843a3.34 3.34 0 0 0-.014 6.682h115.9a3.341 3.341 0 1 0 0-6.682H27.932ZM27.932 212.603a3.34 3.34 0 0 0-.014 6.682H54a3.343 3.343 0 0 0 3.341-3.341 3.339 3.339 0 0 0-3.34-3.341H27.931ZM27.932 172.796a3.34 3.34 0 0 0-2.363 5.704 3.34 3.34 0 0 0 2.363.979h115.8a3.343 3.343 0 0 0 2.358-5.702 3.343 3.343 0 0 0-2.358-.981h-115.8ZM27.932 27.29a3.341 3.341 0 0 0 0 6.683h115.8a3.34 3.34 0 0 0 2.358-5.702 3.34 3.34 0 0 0-2.358-.98h-115.8ZM27.932 47.337a3.34 3.34 0 1 0-.014 6.682h115.9a3.34 3.34 0 0 0 2.362-5.703 3.331 3.331 0 0 0-2.362-.979H27.932ZM27.932 67.097a3.342 3.342 0 0 0-.014 6.682H54a3.341 3.341 0 0 0 0-6.682H27.932ZM235.008 44.553a6.012 6.012 0 0 0-6.018 5.998 6.007 6.007 0 0 0 5.993 6.022h57.386a6.01 6.01 0 1 0 0-12.02h-57.361Z"/><path fill="#CACACA" d="M247.098 61.285c5.953 0 10.778-4.826 10.778-10.779 0-5.952-4.825-10.778-10.778-10.778s-10.778 4.826-10.778 10.778c0 5.953 4.825 10.779 10.778 10.779ZM247.098 206.791c5.953 0 10.778-4.826 10.778-10.779 0-5.952-4.825-10.778-10.778-10.778s-10.778 4.826-10.778 10.778c0 5.953 4.825 10.779 10.778 10.779Z"/><path fill="#B17B5C" d="M252.737 128.304a7.154 7.154 0 0 0 7.366 8.125l6.853 14.839 10.033-1.964-9.971-20.82a7.188 7.188 0 0 0-7.061-6.433 7.194 7.194 0 0 0-7.22 6.253Z"/><path fill="#6982EF" d="m322.15 184.459-27.958-13.828-19.727-33.482-13.79 6.67 17.896 38.679 45.207 26.097-1.628-24.136Z"/><path fill="#B17B5C" d="m259.033 382.391-8.788-.001-4.182-25.339h12.972l-.002 25.34Z"/><path fill="#2F2E41" d="m261.274 390.909-28.337-.001v-.358a11.03 11.03 0 0 1 11.029-11.03h.001l17.308.001-.001 11.388Z"/><path fill="#B17B5C" d="m346.758 366.271-6.132 6.296-21.07-14.684 9.05-9.292 18.152 17.68Z"/><path fill="#2F2E41" d="m354.425 370.61-19.773 20.299-.256-.25a11.028 11.028 0 0 1-.206-15.597l12.076-12.399 8.159 7.947Z"/><path fill="#1A4E66" d="M269.898 231.587h-6.079a169.838 169.838 0 0 0-35.428 59.764l-7.262 21.261 25.88 54.187 16.149.288-18.457-57.529 18.595-24.659.938 49.571 59.851 31.372 11.979-17.696-48.703-26.631 8.294-42.165s16.687-13.915 6.97-35.67l-32.727-12.093Z"/><path fill="#6982EF" d="m349.895 176.405-25.259-11.063-27.801 12.319s-7.873 4.479-2.855 15.948l-30.163 37.978s.055.015 37.964 12.093l34.202-30.119a42.127 42.127 0 0 0 11.606-16.837 42.124 42.124 0 0 0 2.306-20.319Z"/><path fill="#B17B5C" d="M345.661 165.015c9.724 0 17.607-7.882 17.607-17.606 0-9.724-7.883-17.607-17.607-17.607s-17.607 7.883-17.607 17.607 7.883 17.606 17.607 17.606Z"/><path fill="#2F2E41" d="M368.461 124.044c-4.041-3.287-10.308-4.005-14.479-.885-7.276-3.819-17.108-1.827-22.323 4.522-1.877 2.285-3.207 5.376-2.278 8.183.929 2.807 4.933 4.457 7.021 2.363l-.037.863a13.974 13.974 0 0 1-8.689 23.798l17.309 6.992c2.427.981 4.932 1.977 7.55 1.964 2.618-.014 5.409-1.286 6.425-3.699l2.191 6.717a110.508 110.508 0 0 0 10.549-21.747c1.747-4.907 3.159-10.039 2.97-15.245-.188-5.205-2.168-10.539-6.209-13.826Z"/><path fill="#F4717B" d="M270.327 138.087c7.126 0 12.903-5.777 12.903-12.903s-5.777-12.903-12.903-12.903-12.903 5.777-12.903 12.903 5.777 12.903 12.903 12.903Z"/><path fill="#B17B5C" d="M270.658 121.136a7.146 7.146 0 0 0 1.786 5.782 7.15 7.15 0 0 0 5.58 2.343l6.852 14.839 10.033-1.965-9.97-20.82a7.198 7.198 0 0 0-2.308-4.558 7.188 7.188 0 0 0-11.973 4.379Z"/><path fill="#6982EF" d="m340.07 177.291-27.957-13.829-19.728-33.482-13.789 6.67 17.895 38.679 45.208 26.097-1.629-24.135Z"/></svg>