<svg xmlns="http://www.w3.org/2000/svg" fill="none" viewBox="0 0 13 13"><path fill="currentColor" d="M6.102 12.822a5.833 5.833 0 0 1-2.344-.474 6.166 6.166 0 0 1-3.24-3.234 5.896 5.896 0 0 1-.47-2.344c0-.723.124-1.409.37-2.057.25-.652.59-1.24 1.02-1.764.128-.168.28-.26.457-.275.18-.016.33.039.45.164a.5.5 0 0 1 .17.41.85.85 0 0 1-.17.451 4.904 4.904 0 0 0-.808 1.412 4.887 4.887 0 0 0-.293 1.659 4.8 4.8 0 0 0 .375 1.892c.25.586.596 1.102 1.037 1.547.446.441.961.787 1.547 1.037a4.75 4.75 0 0 0 1.899.381c.675 0 1.306-.127 1.892-.38a4.83 4.83 0 0 0 1.547-1.038 4.789 4.789 0 0 0 1.037-1.547 4.8 4.8 0 0 0 .375-1.892c0-.68-.127-1.317-.38-1.91A4.822 4.822 0 0 0 7.96 2.263 4.744 4.744 0 0 0 6.042 1.9l.51-.65v2.191a.532.532 0 0 1-.14.375.472.472 0 0 1-.364.153.465.465 0 0 1-.358-.153.532.532 0 0 1-.14-.375V1.28c0-.175.047-.312.14-.41.098-.101.237-.152.416-.152.832 0 1.614.158 2.344.474.73.313 1.373.748 1.928 1.307.555.555.99 1.197 1.306 1.928.317.73.475 1.511.475 2.344 0 .832-.158 1.613-.475 2.343a6.117 6.117 0 0 1-1.312 1.928 6.036 6.036 0 0 1-1.928 1.307 5.833 5.833 0 0 1-2.343.474Zm.943-5.156a.99.99 0 0 1-.54.287.984.984 0 0 1-.567-.076 1.14 1.14 0 0 1-.475-.416l-2.05-2.982c-.075-.118-.097-.225-.065-.323a.299.299 0 0 1 .193-.199c.102-.035.21-.014.328.064l2.983 2.057c.191.133.328.291.41.475a.924.924 0 0 1 .076.568 1.032 1.032 0 0 1-.293.545Z"/></svg>