<svg xmlns="http://www.w3.org/2000/svg" fill="none" viewBox="0 0 24 24"><path fill="currentColor" fill-rule="evenodd" d="M7.984 6.983a.674.674 0 0 1 .947.105L12 10.924l3.069-3.836a.674.674 0 0 1 1.053.842l-3.259 4.074 3.259 4.072a.674.674 0 1 1-1.053.843L12 13.083l-3.069 3.836a.674.674 0 0 1-1.053-.843l3.259-4.072L7.878 7.93a.674.674 0 0 1 .106-.947Z" clip-rule="evenodd"/><path fill="currentColor" fill-rule="evenodd" d="M12 20.542a8.539 8.539 0 1 0 0-17.077 8.539 8.539 0 0 0 0 17.077Zm0 1.349c5.46 0 9.887-4.427 9.887-9.887 0-5.461-4.427-9.888-9.887-9.888-5.46 0-9.887 4.427-9.887 9.888 0 5.46 4.426 9.887 9.887 9.887Z" clip-rule="evenodd"/></svg>