<svg xmlns="http://www.w3.org/2000/svg" fill="none" viewBox="0 0 24 24"><g fill="currentColor"><path d="m4.86 14.355 6.576 6.178c.2.188.3.282.415.317.097.03.2.03.298 0 .115-.035.215-.129.415-.317l6.576-6.178a4.922 4.922 0 0 0 .52-6.604l-.293-.377c-1.862-2.4-5.599-1.997-6.907.744a.51.51 0 0 1-.92 0c-1.308-2.74-5.045-3.143-6.907-.744l-.292.377a4.922 4.922 0 0 0 .518 6.604Z"/><path fill-rule="evenodd" d="M10.615 8.56c-.98-2.053-3.778-2.355-5.172-.558l-.293.377a3.897 3.897 0 0 0 .411 5.23L12 19.657l6.439-6.049a3.897 3.897 0 0 0 .41-5.229l-.292-.377c-1.394-1.797-4.192-1.495-5.172.557-.556 1.165-2.214 1.165-2.77 0ZM12 6.886c-1.928-2.699-6.04-2.895-8.176-.141l-.293.377a5.946 5.946 0 0 0 .627 7.98l6.593 6.192c.085.08.188.177.285.255a1.514 1.514 0 0 0 1.928 0c.097-.078.2-.175.285-.255l.017-.015 6.576-6.178a5.946 5.946 0 0 0 .627-7.979l-.293-.377C18.04 3.992 13.928 4.188 12 6.887Z" clip-rule="evenodd"/></g></svg>