<svg xmlns="http://www.w3.org/2000/svg" fill="none" viewBox="0 0 22 22"><rect width="21" height="21" x=".5" y=".5" stroke="currentColor" rx="4.5"/><path fill="currentColor" d="M10.512 7.72a1.42 1.42 0 0 1-1.024-.4 1.42 1.42 0 0 1-.4-1.024c0-.405.133-.741.4-1.008a1.392 1.392 0 0 1 1.024-.416c.405 0 .741.139 1.008.416.277.267.416.603.416 1.008s-.139.747-.416 1.024c-.267.267-.603.4-1.008.4ZM9.392 17a.805.805 0 0 1-.496-.144c-.128-.107-.192-.267-.192-.48v-.624c0-.213.064-.368.192-.464a.749.749 0 0 1 .496-.16h.304v-4.256h-.304a.805.805 0 0 1-.496-.144c-.128-.107-.192-.267-.192-.48v-.624c0-.416.23-.624.688-.624h1.776c.213 0 .39.07.528.208a.715.715 0 0 1 .208.528v5.392h.288c.213 0 .384.053.512.16.128.096.192.25.192.464v.624c0 .213-.064.373-.192.48-.128.096-.299.144-.512.144h-2.8Z"/></svg>