<svg xmlns="http://www.w3.org/2000/svg" fill="none" viewBox="0 0 153 40"><rect width="40" height="40" fill="#02006F" rx="5"/><rect width="34" height="34" x="3" y="3" stroke="#F6F4F4" stroke-width="2" rx="2"/><circle cx="20" cy="20" r="10.5" stroke="#F6F4F4" stroke-width="3"/><circle cx="20" cy="20" r="4" fill="#F4717B"/><path fill="#F6F4F4" d="M34 12a2 2 0 0 1 2-2h4v4h-4a2 2 0 0 1-2-2ZM34 28a2 2 0 0 1 2-2h4v4h-4a2 2 0 0 1-2-2Z"/><path fill="#F4717B" d="M132.146 13.192c-.382 0-.702-.121-.962-.364a1.355 1.355 0 0 1-.364-.962c0-.381.121-.693.364-.936.26-.26.58-.39.962-.39.381 0 .693.13.936.39.26.243.39.555.39.936s-.13.702-.39.962c-.243.243-.555.364-.936.364ZM130.976 29c-.451 0-.676-.165-.676-.494v-.442c0-.33.225-.494.676-.494h.806V17.43h-.806c-.451 0-.676-.165-.676-.494v-.442c0-.33.225-.494.676-.494h1.534c.225 0 .416.078.572.234a.778.778 0 0 1 .234.572V27.57h.806c.45 0 .676.165.676.494v.442c0 .33-.226.494-.676.494h-3.146ZM149.401 27.57c.451 0 .676.165.676.494v.442c0 .33-.225.494-.676.494h-1.534a.779.779 0 0 1-.572-.234.778.778 0 0 1-.234-.572v-1.846c-.329.832-.91 1.525-1.742 2.08-.815.555-1.69.832-2.626.832-1.057 0-1.985-.269-2.782-.806-.797-.555-1.413-1.335-1.846-2.34-.433-1.023-.65-2.201-.65-3.536 0-1.387.225-2.591.676-3.614.468-1.04 1.127-1.837 1.976-2.392.849-.555 1.846-.832 2.99-.832.78 0 1.525.2 2.236.598a4.947 4.947 0 0 1 1.768 1.612v-6.76h-.806c-.451 0-.676-.165-.676-.494v-.442c0-.33.225-.494.676-.494h1.586c.225 0 .407.078.546.234a.829.829 0 0 1 .208.572V27.57h.806Zm-6.526.26c.763 0 1.465-.2 2.106-.598a4.22 4.22 0 0 0 1.508-1.612 4.62 4.62 0 0 0 .572-2.262v-3.874c-.555-.763-1.17-1.335-1.846-1.716a4.135 4.135 0 0 0-2.132-.598c-1.335 0-2.357.485-3.068 1.456-.693.953-1.04 2.349-1.04 4.186 0 1.595.338 2.834 1.014 3.718.693.867 1.655 1.3 2.886 1.3Z"/><path fill="currentColor" d="M59.692 13.92c-.659 0-1.214-.217-1.664-.65-.434-.45-.65-1.005-.65-1.664s.216-1.205.65-1.638c.45-.45 1.005-.676 1.664-.676.658 0 1.213.225 1.664.676.45.433.676.98.676 1.638 0 .659-.226 1.213-.676 1.664-.451.433-1.006.65-1.664.65ZM60.758 16c.346 0 .632.113.858.338.225.225.338.511.338.858v12.506c0 1.75-.416 3.111-1.248 4.082-.832.97-2.011 1.456-3.536 1.456-1.11 0-2.02-.277-2.73-.832-.728-.537-1.092-1.23-1.092-2.08 0-.572.182-1.04.546-1.404.364-.347.84-.52 1.43-.52.52 0 .962.165 1.326.494.364.347.572.78.624 1.3.381-.104.658-.355.832-.754.173-.381.26-.962.26-1.742v-10.66h-.468c-.347 0-.624-.078-.832-.234-.208-.173-.312-.433-.312-.78v-1.014c0-.347.104-.598.312-.754.208-.173.476-.26.806-.26h2.886ZM70.11 29.26c-2.01 0-3.58-.58-4.706-1.742-1.126-1.179-1.69-2.808-1.69-4.888 0-2.132.59-3.813 1.768-5.044 1.179-1.23 2.79-1.846 4.836-1.846 2.01 0 3.58.59 4.706 1.768 1.127 1.161 1.69 2.773 1.69 4.836 0 2.132-.59 3.822-1.768 5.07-1.178 1.23-2.79 1.846-4.836 1.846Zm.026-2.99c1.942 0 2.912-1.3 2.912-3.9 0-2.427-.919-3.64-2.756-3.64-.936 0-1.655.338-2.158 1.014-.502.659-.754 1.612-.754 2.86 0 1.196.234 2.106.702 2.73.468.624 1.153.936 2.054.936ZM91.064 25.958c.33 0 .599.087.807.26.208.156.312.407.312.754v1.014c0 .347-.105.607-.313.78-.208.156-.476.234-.806.234H88.18a1.22 1.22 0 0 1-.859-.338 1.22 1.22 0 0 1-.337-.858V26.4a4.882 4.882 0 0 1-1.587 2.054c-.71.537-1.456.806-2.236.806-1.42 0-2.504-.46-3.25-1.378-.745-.919-1.117-2.236-1.117-3.952v-4.888h-.469c-.745 0-1.117-.338-1.117-1.014v-1.014c0-.676.372-1.014 1.118-1.014h2.885c.347 0 .633.113.859.338.225.225.337.511.337.858v5.72c0 1.265.122 2.14.364 2.626.26.485.729.728 1.404.728.503 0 .971-.156 1.404-.468a3.14 3.14 0 0 0 1.014-1.248c.26-.537.39-1.1.39-1.69v-3.822h-.468c-.346 0-.623-.078-.831-.234-.209-.173-.313-.433-.313-.78v-1.014c0-.347.105-.598.313-.754.207-.173.485-.26.831-.26H89.4c.33 0 .607.113.832.338.226.225.338.511.338.858v8.762h.495ZM111.705 16c.347 0 .624.087.832.26.208.156.312.407.312.754v1.014c0 .347-.104.607-.312.78-.208.156-.485.234-.832.234h-.468l-3.042 9.178a1.168 1.168 0 0 1-.416.572.966.966 0 0 1-.624.208h-1.326a1.08 1.08 0 0 1-.65-.208 1.472 1.472 0 0 1-.39-.572l-2.314-6.318-2.314 6.318a1.17 1.17 0 0 1-.415.572.968.968 0 0 1-.624.208h-1.326c-.26 0-.486-.07-.677-.208a1.249 1.249 0 0 1-.39-.572l-3.041-9.178h-.469c-.745 0-1.117-.338-1.117-1.014v-1.014c0-.676.372-1.014 1.117-1.014h4.655c.745 0 1.118.338 1.118 1.014v1.014c0 .676-.373 1.014-1.118 1.014h-.468l1.767 5.486 2.028-5.564c.087-.243.217-.433.39-.572a1.08 1.08 0 0 1 .65-.208h1.092c.243 0 .451.07.624.208.191.139.338.33.442.572l2.002 5.538 1.768-5.46h-.468c-.745 0-1.118-.338-1.118-1.014v-1.014c0-.676.373-1.014 1.118-1.014h4.004Z"/><path fill="#F4717B" d="M125 23a4 4 0 1 1-8 0 4 4 0 0 1 8 0Z"/></svg>