<svg xmlns="http://www.w3.org/2000/svg" fill="none" viewBox="0 0 100 32"><path fill="#F4717B" d="M79.146 9.192c-.381 0-.702-.121-.962-.364a1.357 1.357 0 0 1-.364-.962c0-.381.122-.693.364-.936.26-.26.58-.39.962-.39s.694.13.936.39c.26.243.39.555.39.936s-.13.702-.39.962c-.242.243-.554.364-.936.364ZM77.976 25c-.45 0-.676-.165-.676-.494v-.442c0-.33.225-.494.676-.494h.806V13.43h-.806c-.45 0-.676-.165-.676-.494v-.442c0-.33.225-.494.676-.494h1.534c.225 0 .416.078.572.234a.778.778 0 0 1 .234.572V23.57h.806c.45 0 .676.165.676.494v.442c0 .33-.225.494-.676.494h-3.146ZM96.402 23.57c.45 0 .676.165.676.494v.442c0 .33-.226.494-.676.494h-1.534a.778.778 0 0 1-.572-.234.778.778 0 0 1-.234-.572v-1.846c-.33.832-.91 1.525-1.742 2.08-.815.555-1.69.832-2.626.832-1.058 0-1.985-.269-2.782-.806-.798-.555-1.413-1.335-1.846-2.34-.434-1.023-.65-2.201-.65-3.536 0-1.387.225-2.591.676-3.614.468-1.04 1.126-1.837 1.976-2.392.849-.555 1.846-.832 2.99-.832.78 0 1.525.2 2.236.598a4.944 4.944 0 0 1 1.768 1.612V7.19h-.806c-.451 0-.676-.165-.676-.494v-.442c0-.33.225-.494.676-.494h1.586c.225 0 .407.078.546.234a.83.83 0 0 1 .208.572V23.57h.806Zm-6.526.26c.762 0 1.464-.2 2.106-.598a4.217 4.217 0 0 0 1.508-1.612 4.618 4.618 0 0 0 .572-2.262v-3.874c-.555-.763-1.17-1.335-1.846-1.716a4.134 4.134 0 0 0-2.132-.598c-1.335 0-2.358.485-3.068 1.456-.694.953-1.04 2.349-1.04 4.186 0 1.595.338 2.834 1.014 3.718.693.867 1.655 1.3 2.886 1.3Z"/><path fill="#02006F" d="M6.692 9.92c-.659 0-1.213-.217-1.664-.65-.433-.45-.65-1.005-.65-1.664s.217-1.205.65-1.638c.45-.45 1.005-.676 1.664-.676s1.213.225 1.664.676c.45.433.676.98.676 1.638 0 .659-.225 1.213-.676 1.664-.45.433-1.005.65-1.664.65ZM7.758 12c.347 0 .633.113.858.338.225.225.338.511.338.858v12.506c0 1.75-.416 3.111-1.248 4.082-.832.97-2.01 1.456-3.536 1.456-1.11 0-2.02-.277-2.73-.832-.728-.537-1.092-1.23-1.092-2.08 0-.572.182-1.04.546-1.404.364-.347.84-.52 1.43-.52.52 0 .962.165 1.326.494.364.347.572.78.624 1.3.381-.104.659-.355.832-.754.173-.381.26-.962.26-1.742v-10.66h-.468c-.347 0-.624-.078-.832-.234-.208-.173-.312-.433-.312-.78v-1.014c0-.347.104-.598.312-.754.208-.173.477-.26.806-.26h2.886ZM17.11 25.26c-2.01 0-3.579-.58-4.705-1.742-1.127-1.179-1.69-2.808-1.69-4.888 0-2.132.589-3.813 1.768-5.044 1.178-1.23 2.79-1.846 4.836-1.846 2.01 0 3.579.59 4.706 1.768 1.126 1.161 1.69 2.773 1.69 4.836 0 2.132-.59 3.822-1.768 5.07-1.179 1.23-2.791 1.846-4.836 1.846Zm.027-2.99c1.941 0 2.912-1.3 2.912-3.9 0-2.427-.919-3.64-2.756-3.64-.936 0-1.656.338-2.158 1.014-.503.659-.754 1.612-.754 2.86 0 1.196.234 2.106.702 2.73.468.624 1.152.936 2.054.936ZM38.065 21.958c.33 0 .598.087.806.26.208.156.312.407.312.754v1.014c0 .347-.104.607-.312.78-.208.156-.477.234-.806.234h-2.886a1.22 1.22 0 0 1-.858-.338 1.22 1.22 0 0 1-.338-.858V22.4a4.882 4.882 0 0 1-1.586 2.054c-.71.537-1.456.806-2.236.806-1.421 0-2.505-.46-3.25-1.378-.745-.919-1.118-2.236-1.118-3.952v-4.888h-.468c-.745 0-1.118-.338-1.118-1.014v-1.014c0-.676.373-1.014 1.118-1.014h2.886c.347 0 .633.113.858.338.225.225.338.511.338.858v5.72c0 1.265.121 2.14.364 2.626.26.485.728.728 1.404.728.503 0 .97-.156 1.404-.468a3.14 3.14 0 0 0 1.014-1.248c.26-.537.39-1.1.39-1.69v-3.822h-.468c-.347 0-.624-.078-.832-.234-.208-.173-.312-.433-.312-.78v-1.014c0-.347.104-.598.312-.754.208-.173.485-.26.832-.26h2.886c.33 0 .607.113.832.338.225.225.338.511.338.858v8.762h.494ZM58.706 12c.347 0 .624.087.832.26.208.156.312.407.312.754v1.014c0 .347-.104.607-.312.78-.208.156-.485.234-.832.234h-.468l-3.042 9.178a1.175 1.175 0 0 1-.416.572.968.968 0 0 1-.624.208H52.83c-.243 0-.46-.07-.65-.208a1.463 1.463 0 0 1-.39-.572l-2.314-6.318-2.314 6.318a1.175 1.175 0 0 1-.416.572.968.968 0 0 1-.624.208h-1.326c-.26 0-.485-.07-.676-.208a1.249 1.249 0 0 1-.39-.572l-3.042-9.178h-.468c-.745 0-1.118-.338-1.118-1.014v-1.014c0-.676.373-1.014 1.118-1.014h4.654c.745 0 1.118.338 1.118 1.014v1.014c0 .676-.373 1.014-1.118 1.014h-.468l1.768 5.486 2.028-5.564c.087-.243.217-.433.39-.572.19-.139.407-.208.65-.208h1.092c.243 0 .45.07.624.208.19.139.338.33.442.572l2.002 5.538 1.768-5.46h-.468c-.745 0-1.118-.338-1.118-1.014v-1.014c0-.676.373-1.014 1.118-1.014h4.004Z"/><path fill="#F4717B" d="M72 19a4 4 0 1 1-8 0 4 4 0 0 1 8 0Z"/></svg>