<svg xmlns="http://www.w3.org/2000/svg" fill="none" viewBox="0 0 24 24"><g clip-path="url(#a)"><path fill="currentColor" fill-rule="evenodd" d="M5.47 3.102c-.818 0-1.482.664-1.482 1.483v11.762c0 .82.664 1.483 1.483 1.483h.971V7.04c0-.82.664-1.484 1.483-1.484h8.95v-.971c0-.82-.664-1.483-1.483-1.483H5.47Z" clip-rule="evenodd"/><path fill="currentColor" fill-rule="evenodd" d="M7.056 7.653c0-.819.664-1.483 1.483-1.483h9.921c.82 0 1.483.664 1.483 1.483v11.763c0 .819-.664 1.482-1.483 1.482H8.54c-.82 0-1.484-.663-1.484-1.482V7.653Zm3.311 5.881a.37.37 0 0 1 .371-.37h7.364a.37.37 0 1 1 0 .741h-7.364a.37.37 0 0 1-.37-.37Zm.371 2.698a.37.37 0 0 0 0 .742h7.364a.37.37 0 1 0 0-.742h-7.364Zm3.925-5.766a.37.37 0 0 1 .371-.37h3.068a.37.37 0 1 1 0 .74h-3.068a.37.37 0 0 1-.37-.37Zm-3.404 1.156-1.436-1.114a1.064 1.064 0 0 1-.124-1.57.946.946 0 0 1 1.509.174l.036.062a.125.125 0 0 0 .216 0l.036-.062a.946.946 0 0 1 1.508-.174c.43.457.373 1.185-.123 1.57l-1.437 1.114a.151.151 0 0 1-.185 0Z" clip-rule="evenodd"/></g><defs><clipPath id="a"><path fill="#fff" d="M0 0h24v24H0z"/></clipPath></defs></svg>