<svg xmlns="http://www.w3.org/2000/svg" fill="none" viewBox="0 0 24 24"><path fill="currentColor" fill-rule="evenodd" d="M12 20.543a8.543 8.543 0 1 0 0-17.086 8.543 8.543 0 0 0 0 17.086Zm0 1.35c5.463 0 9.892-4.43 9.892-9.893 0-5.463-4.429-9.892-9.892-9.892-5.463 0-9.892 4.429-9.892 9.892 0 5.463 4.429 9.892 9.892 9.892Z" clip-rule="evenodd"/><path fill="currentColor" fill-rule="evenodd" d="M17.832 7.889a.674.674 0 0 1 .078.95l-6.867 8.094a.674.674 0 0 1-1.014.017l-3.924-4.316a.674.674 0 1 1 .998-.908l3.408 3.748 6.37-7.508a.675.675 0 0 1 .951-.077Z" clip-rule="evenodd"/></svg>